<svg width="323" height="270" viewBox="0 0 323 270" fill="none" xmlns="http://www.w3.org/2000/svg">
<path fill-rule="evenodd" clip-rule="evenodd" d="M0.852295 0.75L161.5 270L322.148 0.75H0.852295ZM146.879 66.667C144.154 64.4283 139.92 63.309 134.177 63.309C131.16 63.309 126.926 63.4064 121.475 63.601V112H127.68V91.1219C129.578 91.2679 131.5 91.3409 133.447 91.3409C134.615 91.3409 135.394 91.3167 135.783 91.2679L147.39 112H154.325L141.915 89.954C144.835 89.078 147.074 87.5693 148.631 85.428C150.188 83.238 150.967 80.7317 150.967 77.9091V76.084C150.967 72.0447 149.604 68.9056 146.879 66.667ZM127.68 68.7109C130.308 68.6136 132.425 68.5649 134.031 68.5649C137.778 68.5649 140.504 69.1976 142.207 70.463C143.91 71.7283 144.762 73.675 144.762 76.303V77.7629C144.762 83.457 141.258 86.304 134.25 86.304C132.498 86.304 130.308 86.1824 127.68 85.939V68.7109ZM200.026 66.448C197.349 64.3553 193.456 63.309 188.346 63.309C184.258 63.309 179.975 63.4064 175.498 63.601V112.438C181.143 112.73 185.596 112.876 188.857 112.876C194.599 112.876 198.882 111.684 201.705 109.299C204.576 106.914 206.012 103.702 206.012 99.663V98.057C206.012 95.2344 205.233 92.874 203.676 90.976C202.167 89.0293 200.05 87.764 197.325 87.1801C201.802 85.2333 204.041 81.705 204.041 76.595V74.989C204.041 71.3877 202.703 68.5406 200.026 66.448ZM181.703 68.8571C183.747 68.7109 185.645 68.6379 187.397 68.6379C191.047 68.6379 193.699 69.2463 195.354 70.463C197.009 71.6797 197.836 73.5046 197.836 75.938V77.179C197.836 79.7097 197.057 81.6807 195.5 83.092C193.991 84.5033 191.777 85.209 188.857 85.209H181.703V68.8571ZM181.703 107.036V90.246H189.295C196.303 90.246 199.807 92.7523 199.807 97.765V99.298C199.807 101.877 198.906 103.897 197.106 105.357C195.354 106.768 192.604 107.474 188.857 107.474C187.786 107.474 186.716 107.45 185.645 107.401C184.623 107.304 183.309 107.182 181.703 107.036Z" fill="#F178B6"/>
</svg>
